<?xml version="1.0" standalone="no"?>
<!DOCTYPE svg PUBLIC "-//W3C//DTD SVG 20010904//EN"
 "http://www.w3.org/TR/2001/REC-SVG-20010904/DTD/svg10.dtd">
<svg version="1.0" xmlns="http://www.w3.org/2000/svg"
 width="910.000000pt" height="910.000000pt" viewBox="0 0 910.000000 910.000000"
 preserveAspectRatio="xMidYMid meet">
<metadata>
Created by potrace 1.14, written by Peter Selinger 2001-2017
</metadata>
<g transform="translate(0.000000,910.000000) scale(0.100000,-0.100000)"
fill="#000000" stroke="none">
<path d="M4275 9039 c-11 -5 -38 -21 -60 -35 -22 -13 -48 -27 -57 -31 -10 -3
-18 -9 -18 -14 0 -5 -6 -9 -14 -9 -8 0 -21 -7 -30 -15 -8 -9 -19 -16 -23 -17
-8 -1 -31 -13 -68 -36 -11 -7 -36 -20 -55 -30 -19 -9 -36 -20 -38 -24 -2 -5
-10 -8 -18 -8 -8 0 -14 -4 -14 -10 0 -5 -7 -10 -16 -10 -8 0 -30 -11 -48 -25
-18 -14 -36 -22 -39 -18 -4 3 -7 2 -7 -3 0 -6 -22 -21 -50 -35 -27 -13 -50
-27 -50 -31 0 -5 -7 -8 -15 -8 -8 0 -15 -4 -15 -10 0 -6 -3 -9 -7 -8 -5 1 -40
-17 -80 -40 -39 -23 -76 -42 -82 -42 -6 0 -11 -4 -11 -10 0 -10 -69 -44 -82
-42 -5 1 -8 -2 -8 -7 0 -5 -25 -21 -55 -36 -30 -16 -55 -32 -55 -37 0 -4 -3
-7 -7 -6 -5 1 -18 -3 -30 -10 l-23 -13 0 -4184 0 -4185 550 0 550 0 0 4500 c0
2475 -1 4500 -2 4499 -2 0 -12 -5 -23 -10z"/>
<path d="M4800 4550 l0 -4500 550 0 550 0 0 4184 0 4184 -115 67 c-63 36 -127
73 -142 81 -16 8 -41 24 -58 34 -16 10 -41 25 -55 33 -57 31 -648 372 -682
394 -21 12 -40 23 -43 23 -3 0 -5 -2025 -5 -4500z"/>
<path d="M2650 5025 c-19 -13 -41 -24 -47 -24 -7 -1 -13 -5 -13 -9 0 -5 -16
-14 -35 -22 -19 -8 -35 -17 -35 -21 0 -4 -8 -10 -18 -13 -10 -4 -59 -30 -110
-60 -50 -30 -93 -51 -96 -48 -3 3 -6 1 -6 -4 0 -5 -21 -21 -47 -34 -26 -14
-54 -31 -61 -37 -7 -7 -20 -13 -28 -13 -8 0 -14 -5 -14 -11 0 -5 -4 -8 -9 -4
-6 3 -14 -3 -20 -12 -6 -10 -11 -14 -11 -10 0 5 -12 0 -28 -10 -46 -31 -66
-43 -82 -50 -8 -3 -37 -20 -65 -37 -27 -17 -63 -38 -80 -46 -16 -8 -32 -17
-35 -20 -3 -3 -26 -17 -52 -30 -27 -14 -48 -29 -48 -33 0 -5 -4 -5 -10 -2 -5
3 -10 1 -10 -4 0 -6 -7 -11 -15 -11 -8 0 -15 -4 -15 -10 0 -5 -3 -10 -7 -9 -5
1 -18 -2 -30 -6 l-23 -7 0 -2189 0 -2189 550 0 550 0 0 2500 c0 1375 -3 2500
-7 2499 -5 0 -24 -11 -43 -24z"/>
<path d="M6400 2550 l0 -2500 550 0 550 0 0 2184 0 2183 -77 45 c-43 25 -145
84 -228 132 -82 47 -157 91 -165 96 -8 5 -28 17 -45 26 -16 9 -145 83 -285
164 -140 81 -265 152 -277 159 l-23 12 0 -2501z"/>
<path d="M1076 3543 c-8 -9 -35 -24 -200 -118 -58 -33 -106 -63 -106 -68 0 -4
-4 -5 -10 -2 -5 3 -10 1 -10 -5 0 -6 -4 -8 -10 -5 -5 3 -10 1 -10 -5 0 -6 -4
-8 -10 -5 -5 3 -10 2 -10 -2 0 -5 -24 -21 -52 -36 -86 -45 -143 -79 -149 -89
-3 -5 -9 -9 -13 -8 -5 1 -96 -48 -146 -80 -8 -5 -33 -19 -55 -31 -22 -11 -42
-24 -45 -28 -3 -3 -34 -21 -70 -40 -36 -19 -67 -37 -70 -40 -3 -3 -27 -18 -55
-32 l-50 -26 -3 -1437 -2 -1436 550 0 550 0 0 1750 c0 963 -4 1750 -8 1750 -5
0 -12 -3 -16 -7z"/>
<path d="M8000 1800 l0 -1750 550 0 550 0 0 1434 0 1434 -307 178 c-170 97
-415 240 -547 316 -131 76 -240 138 -242 138 -2 0 -4 -787 -4 -1750z"/>
</g>
</svg>
