<?xml version="1.0" encoding="UTF-8" ?>
<!DOCTYPE svg PUBLIC "-//W3C//DTD SVG 1.1//EN" "http://www.w3.org/Graphics/SVG/1.1/DTD/svg11.dtd">
<svg width="1438pt" height="450pt" viewBox="0 0 1438 450" version="1.1" xmlns="http://www.w3.org/2000/svg">
<g id="#00adf2ff">
<path fill="#00adf2" opacity="1.00" d=" M 214.68 0.00 L 214.95 0.00 C 215.06 150.00 214.97 300.00 215.00 450.00 L 160.00 450.00 C 159.97 310.56 160.06 171.13 159.96 31.69 C 178.12 21.00 196.47 10.61 214.68 0.00 Z" />
<path fill="#00adf2" opacity="1.00" d=" M 555.49 123.92 C 564.70 123.82 573.91 123.90 583.12 123.88 C 583.14 144.13 583.11 164.38 583.13 184.63 C 604.51 184.61 625.88 184.65 647.26 184.61 C 647.25 164.37 647.25 144.12 647.25 123.88 C 656.46 123.87 665.66 123.87 674.87 123.88 C 674.88 174.42 674.87 224.96 674.88 275.50 C 665.67 275.51 656.47 275.49 647.27 275.51 C 647.23 253.26 647.27 231.01 647.25 208.75 C 625.87 208.74 604.50 208.75 583.13 208.75 C 583.13 230.98 583.11 253.22 583.14 275.45 C 573.93 275.57 564.71 275.47 555.50 275.50 C 555.49 224.97 555.52 174.45 555.49 123.92 Z" />
<path fill="#00adf2" opacity="1.00" d=" M 753.00 123.88 C 764.79 123.84 776.58 123.95 788.37 123.82 C 805.00 174.33 821.28 224.95 837.76 275.50 C 827.80 275.50 817.85 275.51 807.90 275.50 C 803.32 261.17 798.76 246.83 794.17 232.50 C 778.17 232.50 762.17 232.50 746.17 232.50 C 741.83 246.83 737.48 261.16 733.13 275.48 C 723.55 275.52 713.97 275.50 704.39 275.49 C 720.59 224.96 736.78 174.41 753.00 123.88 M 769.65 145.66 C 768.74 149.07 767.95 152.51 767.12 155.94 C 762.88 174.84 756.27 193.07 750.69 211.59 C 763.60 211.66 776.52 211.62 789.43 211.61 C 785.15 198.09 780.77 184.61 776.54 171.08 C 773.94 162.69 772.17 154.07 769.65 145.66 Z" />
<path fill="#00adf2" opacity="1.00" d=" M 867.75 123.88 C 876.99 123.86 886.22 123.89 895.46 123.86 C 895.57 166.66 895.46 209.45 895.51 252.25 C 916.25 252.26 937.00 252.25 957.75 252.25 C 957.75 260.00 957.74 267.74 957.75 275.49 C 927.75 275.51 897.75 275.50 867.75 275.50 C 867.75 224.96 867.75 174.42 867.75 123.88 Z" />
<path fill="#00adf2" opacity="1.00" d=" M 961.07 123.89 C 970.94 123.86 980.81 123.88 990.68 123.88 C 999.04 164.54 1008.25 205.05 1015.10 246.01 C 1022.49 204.91 1033.26 164.53 1042.72 123.88 C 1052.44 123.87 1062.16 123.87 1071.89 123.88 C 1080.29 164.31 1090.38 204.44 1096.33 245.34 C 1103.31 204.47 1113.45 164.25 1122.64 123.85 C 1132.04 123.91 1141.44 123.84 1150.85 123.89 C 1137.28 174.43 1123.71 224.96 1110.13 275.50 C 1100.17 275.49 1090.22 275.52 1080.27 275.48 C 1074.49 249.02 1068.55 222.60 1062.81 196.13 C 1059.91 182.78 1057.80 169.28 1056.07 155.74 C 1051.40 184.48 1043.59 212.55 1036.79 240.83 C 1033.94 252.38 1031.11 263.95 1028.25 275.50 C 1018.22 275.50 1008.20 275.52 998.18 275.49 C 985.84 224.95 973.45 174.42 961.07 123.89 Z" />
<path fill="#00adf2" opacity="1.00" d=" M 1203.21 123.89 C 1215.04 123.86 1226.86 123.88 1238.70 123.88 C 1255.12 174.42 1271.59 224.95 1287.96 275.51 C 1278.02 275.49 1268.07 275.50 1258.13 275.50 C 1253.53 261.18 1248.98 246.83 1244.39 232.50 C 1229.91 232.49 1215.43 232.52 1200.95 232.49 C 1199.43 232.63 1197.72 232.14 1196.36 232.76 C 1191.94 246.98 1187.70 261.26 1183.35 275.50 C 1173.76 275.50 1164.19 275.51 1154.61 275.49 C 1170.80 224.95 1187.02 174.42 1203.21 123.89 M 1219.91 145.81 C 1218.99 148.87 1218.29 151.98 1217.54 155.09 C 1213.30 174.30 1206.55 192.81 1200.92 211.63 C 1213.83 211.61 1226.75 211.64 1239.66 211.61 C 1235.38 198.14 1231.02 184.70 1226.80 171.21 C 1224.19 162.83 1222.43 154.21 1219.91 145.81 Z" />
<path fill="#00adf2" opacity="1.00" d=" M 1318.00 123.88 C 1328.56 123.93 1339.12 123.76 1349.68 123.97 C 1363.15 146.59 1376.87 169.07 1390.40 191.67 C 1399.62 207.25 1407.64 223.52 1414.88 240.11 C 1411.48 201.46 1412.73 162.63 1412.50 123.89 C 1421.00 123.86 1429.50 123.88 1438.00 123.87 L 1438.00 275.50 C 1428.45 275.45 1418.91 275.62 1409.37 275.41 C 1395.63 251.95 1381.51 228.71 1367.75 205.26 C 1358.44 189.30 1350.04 172.83 1342.22 156.10 C 1343.97 195.87 1343.40 235.70 1343.50 275.50 C 1335.00 275.51 1326.51 275.49 1318.02 275.51 C 1317.98 224.96 1318.00 174.42 1318.00 123.88 Z" />
<path fill="#00adf2" opacity="1.00" d=" M 79.99 231.63 C 98.29 221.00 116.62 210.43 134.97 199.89 C 135.05 283.26 134.98 366.63 135.00 450.00 L 80.00 450.00 C 79.99 377.21 80.02 304.42 79.99 231.63 Z" />
<path fill="#00adf2" opacity="1.00" d=" M 0.00 306.65 C 18.27 295.98 36.62 285.44 54.97 274.89 C 55.04 333.26 54.98 391.63 55.00 450.00 L 0.00 450.00 L 0.00 306.65 Z" />
</g>
<g id="#8d8d97ff">
<path fill="#8d8d97" opacity="1.00" d=" M 239.99 0.00 L 240.28 0.00 C 257.76 10.05 275.17 20.20 292.67 30.20 C 293.60 30.88 295.36 31.30 294.99 32.85 C 295.02 171.90 294.99 310.95 295.00 450.00 L 240.00 450.00 C 240.00 300.00 240.01 150.00 239.99 0.00 Z" />
<path fill="#8d8d97" opacity="1.00" d=" M 320.00 199.85 C 338.02 210.22 356.02 220.63 374.02 231.02 C 375.61 231.68 374.78 233.68 375.03 234.97 C 374.96 306.65 375.02 378.32 375.00 450.00 L 320.00 450.00 C 320.00 366.62 319.99 283.23 320.00 199.85 Z" />
<path fill="#8d8d97" opacity="1.00" d=" M 400.00 274.85 C 418.33 285.33 436.52 296.05 454.89 306.43 C 455.14 354.29 454.93 402.14 455.00 450.00 L 400.00 450.00 C 400.00 391.62 399.99 333.23 400.00 274.85 Z" />
<path fill="#8d8d97" opacity="1.00" d=" M 580.75 320.79 C 590.58 317.42 601.72 317.57 611.41 321.38 C 610.47 324.70 609.56 328.03 608.66 331.36 C 600.27 327.99 590.10 327.45 582.15 332.22 C 575.66 336.08 572.30 343.65 571.94 350.98 C 571.27 359.14 573.63 368.29 580.53 373.33 C 588.68 379.23 599.75 378.53 608.83 375.31 C 609.40 378.60 610.10 381.86 610.80 385.14 C 602.91 388.20 594.15 388.63 585.83 387.49 C 577.61 386.22 569.62 382.00 564.86 375.04 C 558.51 365.86 557.57 353.78 560.24 343.17 C 562.79 332.89 570.72 324.21 580.75 320.79 Z" />
<path fill="#8d8d97" opacity="1.00" d=" M 644.07 319.15 C 653.28 317.34 663.54 318.97 670.88 325.10 C 677.73 330.69 681.42 339.39 682.21 348.06 C 683.05 357.88 681.43 368.42 675.36 376.44 C 667.02 387.71 650.72 390.88 638.01 385.94 C 628.77 382.37 622.31 373.58 620.22 364.07 C 618.01 354.05 618.84 343.04 623.89 333.97 C 628.03 326.39 635.58 320.80 644.07 319.15 M 644.49 329.62 C 638.15 332.13 634.46 338.63 633.10 345.02 C 631.35 353.24 631.87 362.35 636.24 369.71 C 639.04 374.54 644.26 378.03 649.92 378.14 C 655.25 378.54 660.61 376.06 663.82 371.82 C 668.32 365.96 669.58 358.25 669.26 351.03 C 668.86 344.25 666.69 337.12 661.51 332.45 C 657.01 328.29 650.10 327.42 644.49 329.62 Z" />
<path fill="#8d8d97" opacity="1.00" d=" M 699.71 319.53 C 705.13 319.46 710.55 319.52 715.97 319.49 C 721.47 336.26 727.24 352.98 731.14 370.22 C 735.20 352.93 741.52 336.31 747.19 319.51 C 752.56 319.49 757.93 319.49 763.30 319.50 C 764.58 342.00 765.93 364.49 767.19 386.99 C 763.15 387.00 759.11 387.00 755.07 387.00 C 754.27 368.29 753.07 349.60 752.88 330.88 C 747.93 349.64 740.98 367.79 735.01 386.24 C 731.80 386.25 728.59 386.26 725.38 386.23 C 719.86 368.03 713.47 350.04 709.66 331.37 C 708.81 349.91 707.95 368.46 706.84 387.00 C 702.96 387.00 699.09 387.00 695.22 387.00 C 696.69 364.51 698.23 342.02 699.71 319.53 Z" />
<path fill="#8d8d97" opacity="1.00" d=" M 783.62 320.48 C 791.33 319.18 799.20 318.88 807.00 319.25 C 813.53 319.73 820.59 321.65 824.85 326.98 C 832.57 336.74 829.48 353.53 817.78 358.76 C 811.08 362.12 803.32 362.41 796.00 361.74 C 796.00 370.16 796.00 378.58 796.00 387.00 C 791.87 387.00 787.75 387.00 783.63 387.00 C 783.62 364.82 783.63 342.65 783.62 320.48 M 796.02 329.07 C 795.99 336.70 795.97 344.32 796.03 351.95 C 801.72 352.62 808.31 352.85 812.95 348.89 C 818.29 344.23 818.04 334.00 811.52 330.48 C 806.80 327.86 801.15 328.53 796.02 329.07 Z" />
<path fill="#8d8d97" opacity="1.00" d=" M 853.05 319.63 C 858.34 319.62 863.64 319.62 868.94 319.63 C 876.22 342.09 883.52 364.55 890.85 386.99 C 886.36 386.99 881.87 387.06 877.39 386.93 C 875.46 380.55 873.39 374.20 871.33 367.86 C 864.26 367.89 857.19 367.86 850.13 367.88 C 848.18 374.25 846.25 380.63 844.32 387.00 C 840.03 387.00 835.74 387.00 831.45 387.00 C 838.65 364.54 845.87 342.09 853.05 319.63 M 852.13 358.64 C 857.84 358.61 863.55 358.63 869.26 358.62 C 866.21 348.94 862.87 339.33 860.57 329.43 C 858.31 339.32 855.18 348.97 852.13 358.64 Z" />
<path fill="#8d8d97" opacity="1.00" d=" M 904.13 319.63 C 908.80 319.62 913.48 319.62 918.16 319.63 C 928.03 336.54 939.30 352.74 947.04 370.82 C 945.68 353.79 946.23 336.70 946.13 319.63 C 949.91 319.62 953.70 319.62 957.49 319.62 C 957.53 342.07 957.48 364.52 957.52 386.97 C 953.26 387.02 949.00 386.99 944.75 387.00 C 934.55 369.50 923.26 352.55 914.88 334.05 C 915.71 351.69 915.27 369.35 915.37 387.00 C 911.62 387.00 907.87 387.00 904.12 386.99 C 904.13 364.54 904.12 342.08 904.13 319.63 Z" />
<path fill="#8d8d97" opacity="1.00" d=" M 968.30 319.64 C 972.99 319.60 977.69 319.65 982.40 319.60 C 987.19 329.76 992.19 339.85 996.33 350.31 C 1000.57 339.90 1005.63 329.85 1010.31 319.63 C 1015.00 319.62 1019.69 319.62 1024.39 319.63 C 1017.02 332.74 1009.22 345.63 1002.06 358.83 C 1001.91 368.21 1002.05 377.61 1002.00 387.00 C 997.87 387.00 993.75 387.00 989.63 387.00 C 989.63 378.64 989.59 370.28 989.65 361.92 C 989.56 360.63 989.83 359.22 989.13 358.06 C 982.18 345.26 975.22 332.46 968.30 319.64 Z" />
</g>
</svg>
